<svg xmlns="http://www.w3.org/2000/svg" viewBox="0 0 600 600"><defs><style>.a{fill:#ff1d25}.b{fill:none}.c{fill:#fff}</style></defs><title>pxg-web-site07</title><path class="a" d="M1422-217.41v945H-132v-945h1554m6-6H-138v957h1566v-957z"/><path class="b" d="M0 0h600v600H0z"/><path class="c" d="M435.552 420.692c-47.566 25.152-92.493 48.907-129.084 85.5C278.572 534.086 250.951 566.155 224 600h4.517q10.867-13.6 21.864-26.759L264.851 600h4.011l-16.039-29.658q11.373-13.5 22.86-26.362L304.5 600h3.966l-6.817-13.254 12.46-83.057a298.261 298.261 0 0 1 23.837-20.271L320.145 600h3.569l18.267-119.625q7.927-5.887 16.188-11.372L341.02 600h3.558l17.486-133.562q4.008-2.613 8.082-5.151l14.249 2.657L372.81 600h3.542l11.528-135.406 12.411 2.315L405.065 600h3.529l-4.752-132.43 16.367 3.054 14.2 128.783c-.168.2-.335.4-.5.593h4.629c40.205-47.785 67.4-102.253 91.814-151.171 22.748-45.566 43.09-86.312 69.648-114.755v-5.6l-22.521 2.19c.905-.882 1.811-1.764 2.709-2.662 4.1-4.1 8.3-8.538 12.594-13.253l7.218-2.128v-3.677l-2.726.8q1.356-1.532 2.726-3.1v-5.38c-7.714 8.963-15.165 17.1-22.306 24.246-42.494 42.49-93.151 69.278-142.142 95.182zM298.889 581.377l-20.682-40.2c10.2-11.316 20.461-22.195 30.755-32.489.322-.322.65-.637.976-.956zM508.211 384.02l2.057 23.013-46.325 2.516c14.851-8.049 29.693-16.426 44.268-25.529zM437.2 423.812q9.695-5.126 19.452-10.333l53.931-2.93 1.808 20.213-76-6.526c.273-.136.54-.283.809-.424zm-6.562 3.473l82.073 7.047 1.654 18.493-106.736-13.215q11.36-6.193 23.009-12.325zm30.905 136.685c-7.468 10.8-15.434 21.409-23.989 31.714L423.834 471.3l37.709 7.031v85.64zm21.563-33.718c-5.7 9.588-11.687 19.133-18.035 28.553v-79.816l18.035 3.362v47.9zm3.528-6V483.01l20.508 3.825c-6.463 12.395-13.25 24.924-20.508 37.414zm22.208-40.685l-134.227-25.034c9.033-5.512 18.289-10.815 27.725-16.021l112.346 13.907 1.2 13.392q-3.466 6.834-7.043 13.753zm18.358-36.312q-4.095 8.2-8.307 16.594l-7.328-81.938q7.956-5.048 15.783-10.423l3.317 68.827-3.465 6.94zm6.686-13.372l-3.123-64.768q2.615-1.835 5.208-3.71l15.525 2.221-8.851 48.989q-4.36 8.476-8.759 17.268zm14.248-27.809l6.857-37.948 13.625 1.948c-7.022 11.215-13.769 23.284-20.483 36zm22.55-39.265l-30.644-4.386q8.833-6.551 17.4-13.681l25.373.474q-6.245 8.357-12.129 17.593zm26.122-34.477q-5.856 6.333-11.34 13.406l-23.949-.448q6.011-5.168 11.855-10.677zM505.4 600h3.937q2.741-5.585 5.392-11.3c4.76-.6 24.09-4.4 30.941-26.9a107.45 107.45 0 0 0 21.334-4.2 65.323 65.323 0 0 1-10.211 20.93A72.33 72.33 0 0 1 531.489 600h7.111a74.627 74.627 0 0 0 21.05-19.4 66.319 66.319 0 0 0 11.314-24.325 91.383 91.383 0 0 0 9.238-3.859q3.923-1.9 7.608-4.17c-1.356 21.051-9.6 38.365-24.575 51.754h5a78.76 78.76 0 0 0 9.181-10.815 126.522 126.522 0 0 0 19.639-3.467A64.671 64.671 0 0 1 588.762 600h4.353A65.84 65.84 0 0 0 600 587.857v-6.587a119.806 119.806 0 0 1-20.078 4.1 74.879 74.879 0 0 0 5.358-10.454 171.519 171.519 0 0 0 14.72-8.525v-4.228q-5.9 3.956-12.838 7.758a85.119 85.119 0 0 0 4.3-24.025 88.641 88.641 0 0 0 8.538-6.629v-4.727c-18.15 17.259-42.344 25.389-72.145 24.218q4.473-10.691 8.876-21.63c.462.011 1.036.022 1.718.022a89.3 89.3 0 0 0 30.54-5.548A64.051 64.051 0 0 0 600 507.594v-6.653c-6.82 12.631-17.567 21.787-32.143 27.318a86.717 86.717 0 0 1-29.705 5.352q1.728-4.283 3.462-8.591 1.964-4.882 3.958-9.823c16.962-1.94 25.723-12.05 30.1-20.287a50.547 50.547 0 0 0 5.322-16.627c4.184-.284 8.8-.769 13.677-1.56.495-.08 1-.165 1.5-.254.656.273 1.962.808 3.832 1.527v-5.856c-2 .419-3.937.78-5.8 1.083a146.678 146.678 0 0 1-31.88 1.615q5.469-12.65 11.439-25.469A102.226 102.226 0 0 0 600 445.186v-3.8a102.654 102.654 0 0 1-24.542 4.385q5.757-12.138 12.1-24.331A46.069 46.069 0 0 0 600 417.492v-4.01a42.978 42.978 0 0 1-10.3 3.911q4.94-9.277 10.3-18.532v-6.97c-26.522 44.533-44.8 89.934-61.659 131.812C527.66 550.236 517.247 576.088 505.4 600zm27.819-37.6c2.939 0 5.824-.1 8.662-.289-5.8 17.132-19.349 21.619-25.4 22.779q5.077-11.133 9.918-22.666c2.301.106 4.58.176 6.823.176zm27.623-84.121c1.765.146 5.2.364 9.821.364a152.7 152.7 0 0 0 6.725-.152c-.994 6.488-6.171 29.068-30.3 32.949 4.412-10.885 8.957-21.961 13.756-33.165z"/><path class="c" d="M593.115 0h-4.353a137.046 137.046 0 0 1-10.375 12.427 89.023 89.023 0 0 0-32.005 18.967c-30.242 16.517-55.7 15.806-63.875 15.015q4.953-7.111 9.535-14.624a150.489 150.489 0 0 0 48.226-12.832A98.812 98.812 0 0 0 568.235 0h-5a99.037 99.037 0 0 1-24.365 15.712 149.988 149.988 0 0 1-44.569 12.3q4.353-7.355 8.427-15.034C517.79 10.479 529.519 5.661 538.6 0h-7.112a95.662 95.662 0 0 1-26.7 9.029Q507.1 4.564 509.34 0h-3.94c-13.922 28.107-29.825 53.531-50.488 74.194-61.479 61.48-130.466 89.821-197.183 117.227-34.568 14.2-70.313 28.886-104.169 47.936-37.971 21.365-69.681 46.186-96.945 75.886A461.833 461.833 0 0 0 0 391.891v6.97q6.168-10.625 12.969-21.172c2.773 10.68 1.951 19.554-2.479 26.414A28.457 28.457 0 0 1 0 413.482v4.01a32.8 32.8 0 0 0 13.439-11.451c5.427-8.384 6.118-19.237 2.082-32.257q9.833-14.894 21.156-29.5c10.452 32.08 9.323 57.232-3.377 74.793-8.7 12.03-21.617 18.653-33.3 22.3v3.806c12.474-3.729 26.551-10.76 36.147-24.025 13.7-18.937 14.752-45.916 3.139-80.191q8.474-10.667 17.878-21.081c17.609 55.514 15.652 97.069-5.854 123.519C37.127 460.846 16.546 468.659 0 472.14V478c1.839.711 4.216 1.6 7.049 2.585A70.755 70.755 0 0 1 0 500.941v6.653a70.263 70.263 0 0 0 10.413-25.86 273.122 273.122 0 0 0 16.959 5.077 102.2 102.2 0 0 1-17.734 36.975A92.048 92.048 0 0 1 0 534.54v4.727a93.033 93.033 0 0 0 12.438-13.337A104.44 104.44 0 0 0 30.8 487.69c4.821 1.2 9.953 2.337 15.282 3.3.446.083.885.149 1.328.226-.054 2.326-.686 13.411-7.637 27.616-5.88 12.016-17.4 28.335-39.77 43.337v4.228C24.4 550.548 36.8 533 43.042 520.167c6.808-14 7.759-24.934 7.882-28.371q9.335 1.459 17.979 1.929a117.961 117.961 0 0 1-13.261 42.281C43.231 558.788 24.565 573.941 0 581.27v6.587a33.273 33.273 0 0 0 1.163-3.3 98.437 98.437 0 0 0 28.91-14.031 96.78 96.78 0 0 0 28.734-32.954 119.494 119.494 0 0 0 13.634-43.7c1.553.047 3.1.083 4.612.083a122.1 122.1 0 0 0 16.521-1.078c-.008 8.1-2.2 39.5-33.13 72.835Q55.18 568.2 50.1 571.034A154.294 154.294 0 0 0 12.608 600h4.93a154.372 154.372 0 0 1 34.435-25.973c24.988-13.946 66.679-28.2 124.136-17.865q-4.926 5.875-9.65 12a220.606 220.606 0 0 0-63.21 5.184c-20.756 4.845-39.328 12.639-55.2 23.17a137.45 137.45 0 0 0-4.986 3.481h6.3c18.415-12.378 38.011-19.315 54.58-23.19a218.588 218.588 0 0 1 59.936-5.283q-8.425 11.183-16.226 23.239A199.229 199.229 0 0 0 108.04 600h19.36c8.011-1.1 14.354-1.5 17.937-1.64-.345.543-.681 1.1-1.022 1.64h4.043c6.034-9.522 12.529-18.918 19.6-28.17.194.019.306.03.322.033l.061-.535A367.03 367.03 0 0 1 211.6 524.1c66.194-60.766 141.21-90.961 207.4-117.6 58.069-23.374 112.918-45.452 151.67-84.206l-2.494-2.493a207.2 207.2 0 0 1-19.383 17.04c.719-7.873 3.836-26.4 17.343-39.031q3.942 7.536 8.7 15.158-3.268 3.431-6.663 6.835l2.494 2.5A396.094 396.094 0 0 0 600 289.507v-5.7q-3.295 4.217-6.751 8.4c-18.255-48.537-15.959-88.393 6.751-119v-6.152a98.032 98.032 0 0 0-11.8 18.264c-14.92 29.994-14.084 67 2.465 110q-6.377 7.56-13.322 15c-24.56-39.669-32.186-77.419-22.643-112.245 8.2-29.923 27.832-52.139 42.858-65.509.819-.73 1.632-1.436 2.44-2.13v-4.619q-2.309 1.918-4.7 4.038a177.352 177.352 0 0 0-5.6 5.2c-2.523-22.222.932-40.06 10.3-53.145V76.2c-12.466 14.61-16.994 35.462-13.462 62.009a156.368 156.368 0 0 0-19.062 23.581c-9.048-43.513-3.921-75.787 15.262-95.961A66.209 66.209 0 0 1 600 52.911v-3.955a70.485 70.485 0 0 0-19.807 14.425 69.427 69.427 0 0 0-15.015 24.73 222 222 0 0 0-25.316 18.94 108.23 108.23 0 0 1 10.867-36.5c10.771-20.93 27.3-34.288 49.271-39.9v-3.6c-28.727 7.155-44.225 25.982-52.407 41.881a108.194 108.194 0 0 0-11.5 40.782l.722.03A190.4 190.4 0 0 0 522.01 124.7a140.026 140.026 0 0 1-.93-19.656c.106-.061.208-.124.316-.185l-.3-.524c.493-18.675 4.815-44.654 22.225-64.688C556.667 24.292 575.654 14.6 600 10.655V7.086a129.965 129.965 0 0 0-14.959 3.244A127.811 127.811 0 0 0 593.115 0zM457.41 76.688q3.4-3.4 6.634-6.976a126.336 126.336 0 0 0 19.36 1.433c1.159 0 2.361-.022 3.58-.055a64.911 64.911 0 0 0-4.093 12.8 81.544 81.544 0 0 1-30.352-2.417q2.443-2.364 4.871-4.785zm42.35 38.943a115.336 115.336 0 0 0-15.974 16.569c-.682-11.937-1.574-44.21 7.2-61.276A111.058 111.058 0 0 0 506.177 69c-9.035 17.566-6.983 41.541-6.417 46.631zm-40.16 90.923l1.719-.157a179.834 179.834 0 0 0-16.558 20.081 127.9 127.9 0 0 1-2.853-38.423c1.655-20.784 9.664-49.913 37.918-72.849-.109 10.567.522 19 .718 21.321a113.039 113.039 0 0 0-15.734 31.643c-6.673 21.247-5.275 37.692-5.21 38.384zM314.732 309.881a159.676 159.676 0 0 0 19.2-13.206c3.819 52.53-13.12 88.2-28.2 109.007a131.772 131.772 0 0 1-32.078 31.632c.427-5.705.65-11.766.553-18.044-.007-.416-.022-.824-.032-1.237 2.317-2.139 11.439-11.066 20.658-26.938 9.616-16.556 21.08-44.083 21.079-81.213h-1.174zm-22.874 79.3A125.226 125.226 0 0 1 274 413.243a164.2 164.2 0 0 0-2.383-21.277 158.19 158.19 0 0 0 20.493-70.819 187.409 187.409 0 0 0 20.254-9.881c-.278 35.563-11.264 61.967-20.506 77.919zm-21.318-2.593a130.432 130.432 0 0 0-6.185-20.333 116.07 116.07 0 0 0-1.324-3.164c8.773-29.935 5.445-60.5 1.08-80.93a211.489 211.489 0 0 0-11.011-35.944 62.81 62.81 0 0 0 17.188-8.687 165.22 165.22 0 0 1 15.6 45.616c4.797 25.313 5.858 63.454-15.349 103.445zm2.727 55.171c3.748-2.265 19.842-12.722 35.209-33.861 15.725-21.632 33.424-58.939 28.78-114a141.419 141.419 0 0 0 16.428-16.512 182.222 182.222 0 0 1 2.972 67.01c-5.155 34.941-24.23 82.861-85.578 113.815a226.314 226.314 0 0 0 2.189-16.448zm112.714-98.786c.07 6.9.452 14.214 1.213 21.914l-.1-.48-33.09 6.708a156.166 156.166 0 0 0 4.863-18.78zm-26.385 5.38c.2-1.187.4-2.376.572-3.574a171.34 171.34 0 0 0 1.506-14.727l25.18-9.613a224.781 224.781 0 0 0-.882 18.806zm-23.055 58.677c.233-.347.453-.7.682-1.047l52.819-20.511q1.108 6.255 2.567 12.78L317.641 429.7a146.446 146.446 0 0 0 18.9-22.667zm3.849-6.061a144.559 144.559 0 0 0 12.294-25.987l34.826-7.057q.754 6.8 1.929 14zm46.851-84.454l-25.379 9.69a188.51 188.51 0 0 0-.376-20.92l29.791-12.664c-.033.146-.069.284-.1.43a197.12 197.12 0 0 0-3.937 23.467zm-26.063-14.934a190.346 190.346 0 0 0-1.492-11.986l39.376-21.776a166.977 166.977 0 0 0-6.726 20.519zm-2.111-15.677c-1.072-5.994-2.137-10.156-2.614-11.9q1.585-2.013 3.094-4.082a132.976 132.976 0 0 0 3.944-5.738l41.556-19.808q1.122 3.5 2.289 6.73a95.818 95.818 0 0 0-6.116 11.653l-.072-.13zm28.875-114l11.017-5.38a125.85 125.85 0 0 0-2.482 21.85l-9.17 3.517a195.338 195.338 0 0 0 .635-19.983zm-.11-3.872c-.26-6.9-.843-13.064-1.5-18.2l24.656-15.58a110.7 110.7 0 0 0-10.649 26.365c-.13.5-.245.992-.368 1.486zm-.894 27.781l9.482-3.638a151.388 151.388 0 0 0 .965 16.972l-13.458 5.4c.488-2.243.945-4.5 1.346-6.794a176.329 176.329 0 0 0 1.664-11.936zm10.892 16.958a173.417 173.417 0 0 0 1.7 10.288l-22.4 14.373a155 155 0 0 0 5.826-18.7zm2.472 13.987a190.78 190.78 0 0 0 3.686 14.216l-37.056 17.666a141.469 141.469 0 0 0 7.869-15.52zm3.453-65.267c7.978-30.455 28.341-55.29 60.522-73.813l-.239-.413a87.057 87.057 0 0 0 10.547.664 68.373 68.373 0 0 0 7.576-.4q-.242 1.331-.455 2.679c-22.869 11.451-39.966 27.271-50.808 47.046-8.775 16.007-13.483 34.6-13.993 55.257-.79 32.048 8.946 59.316 10.713 63.98q-3.741 8.326-6.7 17.129a201.054 201.054 0 0 1-13.1-32.183c-6.183-19.945-11.904-50.014-4.063-79.937zm16.68 31c1.135-44.67 21.549-77.628 60.675-98.017-.675 5.46-1.034 10.983-1.192 16.164-31.145 24.008-39.8 55.185-41.539 77.264a126.752 126.752 0 0 0 3.727 42.441 177.689 177.689 0 0 0-12.143 21.112c-.077.16-.15.325-.227.485-3.071-9.019-9.985-32.515-9.301-59.44zm47.742-23.27C473.9 151 487.1 125.787 517.466 107.187a130.978 130.978 0 0 0 1.472 21.079 170.654 170.654 0 0 0-11.544 15.434 160.821 160.821 0 0 0-18.908 39.109 193.964 193.964 0 0 0-25.463 21.812 109.372 109.372 0 0 1 5.154-35.395zm-18.611-84.91a95.676 95.676 0 0 0 9.687 2.241c-18.94 11.432-33.686 25.119-44.125 40.917L385.8 146c-.809-5.427-1.632-9.3-2.059-11.165a409.119 409.119 0 0 0 65.825-50.524zm-69 52.487a192.658 192.658 0 0 1 1.235 70.346c-6.23 35.578-26.864 83.344-89.555 110.124a165.046 165.046 0 0 0-.515-17.222c21.582-10.886 38.724-25.72 50.949-44.1a132.7 132.7 0 0 0 19.863-50.77 167.165 167.165 0 0 0-.141-57.822q9.116-5.048 18.16-10.554zm-21.42 12.342a164.3 164.3 0 0 1-.1 55.543c-5.082 28.567-20.972 67.488-67.666 91.582a169.24 169.24 0 0 0-2.023-13.775q-.728-3.836-1.574-7.419c2.515-1.182 17.341-8.6 31.184-25.618 13.565-16.674 28.528-46.04 23.263-91.469q8.477-4.258 16.916-8.844zm-20.282 10.523c4.692 43.392-9.572 71.451-22.526 87.428a95.191 95.191 0 0 1-29.416 24.468 177.279 177.279 0 0 0-5.351-17.259c3.568-1.648 12.284-6.422 20.64-16.743 9.514-11.749 20.249-33.208 18.09-69.04q9.292-4.278 18.563-8.855zm-22 10.429c1.74 33.756-8.319 53.967-17.252 65.074a57.4 57.4 0 0 1-19.294 15.817 135.531 135.531 0 0 0-7.193-15.643 56.291 56.291 0 0 0 4.31-3.914c12.152-12.273 18.3-29.779 18.309-52.024q10.556-4.527 21.117-9.311zm-57.788 24.592l3.014-1.237c-.411 9.313-3.349 16.4-8.768 21.076a24.648 24.648 0 0 1-14.093 5.691 104.667 104.667 0 0 0-1.647-16.658q10.679-4.449 21.491-8.872zm-19.815 29.06a28.5 28.5 0 0 0 12.369-3.712c6.316-3.649 13.791-11.474 14.034-28.054 8.821-3.63 17.675-7.293 26.54-11.066-.278 20.541-6.065 36.689-17.245 48-13.647 13.808-31.658 16.451-37.819 16.958a121.9 121.9 0 0 0 2.118-22.126zm-2.861 25.725a65.188 65.188 0 0 0 13.3-2.232c3.824 9.112 23.919 60.771 11.035 110.9a107.9 107.9 0 0 0-13.02-20.435c4.769-43-11.1-73.841-13.853-78.807.748-2.37 1.43-4.776 2.026-7.224.18-.741.347-1.471.512-2.202zm-55.51 195a95.8 95.8 0 0 0 2.093-41.936 84.455 84.455 0 0 0 16.976-10.355c6.539 38.469.878 70.1-16.857 94.035-23.452 31.651-61.562 40.44-72.373 42.35a131.522 131.522 0 0 0 5.237-19.825c43.222-15.459 59.168-43.438 64.921-64.269zm-64.236 60.264a145.321 145.321 0 0 0 1.789-18.945 62.992 62.992 0 0 0 12.886-8.031c17.153-13.94 25.9-36.584 26.221-67.563a93.5 93.5 0 0 0 22.113-6.2 94.632 94.632 0 0 1-2.215 39.682c-7.911 28.447-28.359 48.978-60.797 61.057zm40.9-98.119a215.347 215.347 0 0 0-1.574-23.2l.513 1.483c29.563-10.225 40.346-31.1 44.187-46.814a81.64 81.64 0 0 0 1.414-30.85 110.216 110.216 0 0 0 12.839-13.209q1.879-2.294 3.617-4.683c9.823 35.231 7.729 63.615-6.233 84.41-17.054 25.397-47.117 31.649-54.767 32.863zm-1.823-25.191q-1.359-10.683-3.717-22.341a101.38 101.38 0 0 0 5.318-9.339 99.882 99.882 0 0 0 7.362-19.66 140.851 140.851 0 0 0 34.2-20.149 79.754 79.754 0 0 1-1.643 27.313c-5.251 21.489-19.226 36.353-41.524 44.177zm65.408-95.823a104.883 104.883 0 0 0 11.161-22.08c4.477 9.112 15.307 35.314 12.249 70.428a107.6 107.6 0 0 0-16.885-15.3 171.316 171.316 0 0 0-6.525-33.048zm-3.706-73.5q8.358-3.621 16.8-7.144a117.229 117.229 0 0 1-1.776 45.88c-5.7 23.446-21.949 55.2-66.749 74.976a111.285 111.285 0 0 0 2.186-28.975c30.63-12.083 42.464-34.625 46.979-51.528a91.706 91.706 0 0 0 2.56-33.209zm-3.4 1.477a89.772 89.772 0 0 1-2.57 30.824c-6.148 23.013-20.882 39.4-43.809 48.747a142.887 142.887 0 0 0-2.8-18.73c24.626-16.837 27.9-45.508 28.317-51.423q10.363-4.853 20.867-9.421zm-24.59 11.179c-.98 8.161-5.48 31.535-25.433 45.947a193.137 193.137 0 0 0-9.208-28.079c11.391-6.417 22.943-12.31 34.647-17.871zm-37.734 19.623c16.2 39.715 17.039 74.621 2.469 103.769-12.973 25.95-36.037 42.528-53.1 51.866a173.159 173.159 0 0 1-31.519 13.4 117.667 117.667 0 0 0 3-28.829c6.8-1.949 36.981-12.047 53.773-41.594 13.083-23.019 14.547-51.875 4.37-85.775q10.404-6.779 21.013-12.84zm-24.089 14.866c9.553 32.483 8.1 60.052-4.338 81.968C108 368.149 80.263 378.469 72.47 380.914a191.3 191.3 0 0 0-3.4-28.965 68.516 68.516 0 0 0 19.517-16.772c8.589-10.789 17.423-29.15 11.2-55.578 9.135-7.354 18.421-14.099 27.839-20.357zm-59.3 89.052a299.9 299.9 0 0 0-8.418-31.414 367.79 367.79 0 0 1 36.815-34.8c4.162 19.388.533 36.465-10.815 50.789a66.434 66.434 0 0 1-17.573 15.422zm-14.286 97.349A78.55 78.55 0 0 0 68.518 417.4a167.213 167.213 0 0 0 29.7-11.89c-1.082 16.2-6.2 27.845-15.244 34.63-10.53 7.9-23.815 7.125-29.6 6.292.217-.26.442-.519.66-.786zm-3.424 3.908a50.556 50.556 0 0 0 9.908.956c7.072 0 16.43-1.447 24.548-7.527 10.321-7.728 15.956-20.982 16.782-39.376.278-.152.554-.3.834-.449a156.914 156.914 0 0 0 24.329-16.352c1.708 34.423-6.121 58.3-23.293 71-23.634 17.476-58.75 8.748-70.018 5.27a78.623 78.623 0 0 0 16.91-13.522zm-3.835 37.973a259.624 259.624 0 0 1-44.228-12.333 109.13 109.13 0 0 0 26.989-9.77 122.1 122.1 0 0 0 26.326 5.868 103.079 103.079 0 0 0 11.138.625c15.466 0 28.732-3.828 38.8-11.267 18.639-13.775 26.9-39.586 24.573-76.707a120.257 120.257 0 0 0 18.848-20.737c10.539 54.766 3.781 92.378-20.12 111.809-22.742 18.49-57.324 17.01-82.326 12.512zm21.378 74.789c15.587-18.57 22.641-36 25.828-47.818a81.992 81.992 0 0 0 3.13-22.156 85.274 85.274 0 0 0 17.735-4.969c-.452 10.038-3.445 46.04-23.107 67.177a171.82 171.82 0 0 0-23.586 7.766zm60.037-13.053a186.318 186.318 0 0 0-24.4 2.69c-2.091.372-4.167.791-6.233 1.235a82.3 82.3 0 0 0 11.738-20.808 127 127 0 0 0 27.007-7.436c14.45-5.664 34.787-16.611 49.61-36.6 18.659-25.166 24.428-58.4 17.166-98.778a71.894 71.894 0 0 0 12.143-13.813c.205-.306.4-.62.6-.929 14.222 37.2 14.485 70.892.764 100.186-12.962 27.674-36.278 46.338-53.556 57.12a177.1 177.1 0 0 1-34.885 16.994zm81.027-27.763a366.587 366.587 0 0 0-30.477 31.55 224.126 224.126 0 0 0-40.6-3.991 193.316 193.316 0 0 0 26.666-13.882c17.708-11.035 41.618-30.168 54.965-58.649 14.467-30.868 13.907-66.361-1.645-105.5a75.5 75.5 0 0 0 8.067-21.762c28.841 40.547 27.426 80.8 20.977 107.74a157 157 0 0 1-22.1 50.64q-8.001 6.654-15.853 13.854zm24.372-20.764a164.692 164.692 0 0 0 16.979-42.777 136.691 136.691 0 0 0 2.5-53.206c-3.321-21.291-12.077-41.564-26.012-60.28a105.214 105.214 0 0 0 .923-21.167c34.342 26.642 42.216 66.674 42.689 95.919a210.423 210.423 0 0 1-7.878 59.666l.577.185q-15.038 10.059-29.778 21.661zm33.525-24.14c.819-3.054 2.053-8.053 3.269-14.5l.163.331a185.123 185.123 0 0 0 39.449-25.7l83.427-34.994q1.195 5.044 2.617 10.239C354.341 429 310.027 448.46 267.114 476.6zm132.216-65.961c-14.166-51.955-10.448-92.023-4.767-116.584 4.608-19.924 11.2-33.106 14.355-38.682a190.855 190.855 0 0 0 10.5 22.933 213.533 213.533 0 0 0-8.649 45.844c-3.183 39.627 4.509 71.961 6.435 79.268q-8.841 3.56-17.874 7.221zm21.169-8.547a247.133 247.133 0 0 1-6.216-77.661 208.313 208.313 0 0 1 8.967-46.3l.087-.052-.046-.075a178.066 178.066 0 0 1 63.457-89.528q-1.552 5.449-2.722 11.019a163.045 163.045 0 0 0-3.036 21.609 156.241 156.241 0 0 0-36.683 58 172.808 172.808 0 0 0-9.663 56.312 196.107 196.107 0 0 0 8.01 57.681q-10.963 4.507-22.154 8.996zm25.426-10.341a192.542 192.542 0 0 1-7.754-56.3c.293-29.721 8.006-72.368 42.515-108.969-.67 17.041 1.582 28.983 2.279 32.2a104.621 104.621 0 0 0-9.343 13.827c-16.726 29.652-18.509 66.565-5.329 109.724q-11.009 4.847-22.368 9.519zm25.618-10.947c-12.745-42.008-11.028-77.839 5.132-106.519 22.468-39.869 66.074-52.7 70.76-53.978a123.766 123.766 0 0 0 1.773 29.868 90.762 90.762 0 0 0-34.368 23.507 97.082 97.082 0 0 0-21.546 37.967c-5.42 17.749-6.623 38.183-3.6 60.744q-8.913 4.311-18.151 8.411zm92.917-86.242c-17.581 15.747-19.247 40.01-19.4 45.127a278.765 278.765 0 0 1-24.15 16.035 104.316 104.316 0 0 1 2.653-28.621c5.232-21.777 16.968-37.155 34.892-45.74q2.687 6.556 6.005 13.194zm-7.311-16.481c-18.8 8.949-31.582 25.575-37.018 48.2a105.7 105.7 0 0 0-2.636 31.452c-7.878 4.564-16.049 8.884-24.458 13.025-5-39.2 3.364-71.853 24.27-94.546a89.029 89.029 0 0 1 32.58-22.512 154.378 154.378 0 0 0 7.263 24.376zm7.639-112.015a123.328 123.328 0 0 0-13.483 31.056 115.342 115.342 0 0 0-3.774 21.8l-.531-2.152c-.5.121-12.387 3.1-27.446 11.446-1.083.6-2.2 1.246-3.345 1.924a167.141 167.141 0 0 1 5.519-34.308c5.044-18.7 15.739-44.58 38.148-63.55a211.973 211.973 0 0 0 4.912 33.778zm-1.334-72.592q-4.326 15.226-3.765 34.4c-24.561 19.717-36.066 47.352-41.392 67.146a164.9 164.9 0 0 0-5.706 37.348 122.6 122.6 0 0 0-26.693 22.8 152.119 152.119 0 0 1 1.616-55.11c6.275-29.77 24.586-72.073 75.94-106.584zm-45.58 3.577c-.156 2.059-.26 4.051-.325 5.975a128.463 128.463 0 0 0-14.487 9.908c-.631-8.152-1.327-30.231 7.758-44.985a79.274 79.274 0 0 0 14.655-5.212 118.977 118.977 0 0 0-7.601 34.314zm9.765-39.379c-22.3 12.422-51.3 10.076-60.779 8.872q7.021-8.057 13.322-16.837a71.412 71.412 0 0 0 10 .631c10.742 0 28.4-1.9 49.181-11.463a85.924 85.924 0 0 0-11.724 18.797zM148.357 0h-4.043q-5.637 8.979-10.98 18.446c-.562 1-1.108 2-1.662 3.007a174.928 174.928 0 0 0-37.949 7.461A133.435 133.435 0 0 0 68.27 39.845a136.128 136.128 0 0 0-27.6-1.014C61.118 18.179 88.5 8.268 108.248 3.575A202.892 202.892 0 0 1 127.4 0h-19.36l-.518.121c-21.1 5-50.728 15.834-72.025 39.015l.11.1A109.076 109.076 0 0 0 6.96 45.875 133.281 133.281 0 0 1 49.363 0h-6.3q-3.521 2.559-6.851 5.311a198.812 198.812 0 0 0-23.891.345A105.644 105.644 0 0 1 17.531 0h-4.923a75.4 75.4 0 0 0-4.964 5.815l.318.237Q3.9 6.474 0 7.086v3.569A173.955 173.955 0 0 1 32.265 8.7 135.639 135.639 0 0 0 17.3 24.386 100.143 100.143 0 0 0 0 27.056v3.6a95.874 95.874 0 0 1 14.33-2.483A140.669 140.669 0 0 0 1.753 48.11q-.879.413-1.753.846v3.955C23.651 40.465 52.122 41.688 63.355 42.8A92.108 92.108 0 0 0 48.5 54.515c-4.663.08-30.6 1.375-47.9 20.979-.2.232-.4.469-.6.7v5.711a50.935 50.935 0 0 1 3.222-4.051C16.7 62.571 36.344 59.06 44.9 58.263a71.879 71.879 0 0 0-9.592 13.475q-8.751 15.974-9.028 35.939A167.553 167.553 0 0 0 0 125.815v4.619A174.788 174.788 0 0 1 26.315 111.7a123.63 123.63 0 0 0 4.491 28.8c-.647.5-1.876 1.328-3.079 2.133-5.843 3.919-17.268 11.572-27.727 24.418v6.149a118.526 118.526 0 0 1 29.691-27.632c.832-.557 1.538-1.031 2.139-1.453a191.732 191.732 0 0 0 6.543 18.48C15.34 176.411 2.8 199.918 2.1 230.7a140.349 140.349 0 0 0 5.857 42.57Q4.092 278.562 0 283.807v5.7c42.471-53.118 65.887-110.114 88.662-165.552C106.33 80.946 123.415 39.368 148.357 0zM31.036 141.381l-.007-.028.008.028zM10.575 269.646a139.825 139.825 0 0 1-4.949-38.864c.678-29.744 12.161-51.566 34.13-64.906q1.664 3.882 3.532 7.852c-17.837 18.258-20.788 35.883-20.082 47.53a50.793 50.793 0 0 0 5.615 20.6 437.457 437.457 0 0 1-18.246 27.788zm20.4-31.389a48.813 48.813 0 0 1-4.244-17.215c-.93-15.258 5.352-30.4 18.182-43.918q4.164 8.533 9.26 17.474c-7.03 14.646-14.651 29.231-23.2 43.659zM56.026 190.7q-15.193-27.107-21.593-50.263l-.007-.03c-7.282-26.37-5.979-48.783 3.974-66.964C51.134 50.183 76.046 38.235 94.7 32.3a173.831 173.831 0 0 1 34.922-7.141q-5.239 9.661-10.064 19.477a122.132 122.132 0 0 0-26.139 6.722c-19.235 7.297-33.15 18.586-40.235 32.647-10.884 21.595-6.37 49.668 13.394 83.443q-5.09 11.634-10.552 23.252zm12.3-27.269c-18.026-31.667-22.065-57.839-12-77.829 13.739-27.282 50.3-35.278 61.354-37.105q-6.139 12.655-11.762 25.439c-4.616 1.235-26 7.863-35.11 26.808-6.4 13.312-5.157 29.537 3.677 48.231q-3.034 7.225-6.158 14.458zm8.017-18.893c-7.14-16.429-7.94-30.628-2.366-42.242C81.1 87.459 96.953 80.621 104.032 78.22c-6.495 14.855-12.61 29.73-18.634 44.395q-4.489 10.927-9.053 21.925zM25.06 312.487c10.386-6.927 22.717-15.026 36.995-24.405 92.16-60.546 263.707-173.239 354.152-263.682Q428.03 12.573 438.541 0h-4.629q-9.6 11.237-20.2 21.9-2.063 2.063-4.182 4.142L408.595 0h-3.529l1.054 29.358c-10.749 10.39-22.481 21.04-34.98 31.846L376.351 0h-3.541l-5.49 64.489q-8.746 7.491-17.93 15.062l-12.138-23.594L344.578 0h-3.558l-6.6 50.442-14.197-27.589L323.714 0h-3.569l-2.673 17.5-9-17.5H304.5l42.1 81.842q-11.4 9.347-23.341 18.758L268.862 0h-4.011l55.6 102.813a2007.145 2007.145 0 0 1-33.072 25.386L228.442.094l.074-.094H224c-40.514 50.88-79.508 105.784-115.608 156.62C69.53 211.347 32.411 263.613 0 301.266v5.38c6.576-7.537 13.347-15.684 20.291-24.354L12.9 305.141 0 308.944v3.677l11.58-3.414-4.049 12.509q-3.578 3.222-7 6.708l-.531.054v5.6a142.594 142.594 0 0 1 25.06-21.591zm35.059-27.354q-13.182 8.657-24.149 15.885l20.639-36.192 25.257 6.008c-7.639 5.03-14.917 9.812-21.748 14.299zm37.15-24.463l4.531-69.415 24.552-2.056-16.362 63.04q-6.479 4.304-12.721 8.431zm17.131-11.355l15.683-60.427 34.842-2.921-37.48 54.647q-6.624 4.427-13.045 8.701zm20.956-14l34.108-49.731 18.016-1.51-7.747 21.126a4831.8 4831.8 0 0 1-44.382 30.117zm149.132-104.952c-21.114 15.823-42.768 31.483-64.258 46.655l41-97.2zm-25.253-54.89l-44.452 105.384q-15.125 10.633-30.025 20.891l58.776-160.407zM225.978 3.178l15.464 33.616-3.91 10.671-43.68-2.74c10.584-14.033 21.301-27.932 32.126-41.547zM191.317 48.1l44.949 2.819-8.384 22.881-60.315 6.364Q179.312 64.1 191.317 48.1zm-26.558 35.911l61.77-6.518-11.2 30.568-69.592 2.249q9.412-13.11 19.022-26.299zm-21.612 29.912l70.874-2.29-9.321 25.438-79.489 1.973q8.865-12.46 17.936-25.121zm-31.878 44.739l11.385-16.027 80.74-2-6.144 16.765-87.82 3.853c.613-.866 1.224-1.726 1.839-2.591zm-4.428 6.234l89.094-3.908-7.122 19.436-98.922 8.29q8.409-11.778 16.95-23.814zM87.2 192.479l11.044-.923-.909 13.913-25.615 8.555q7.668-10.601 15.48-21.545zm-19.036 26.45l28.924-9.657-1.553 23.79-36.448-1.7q4.513-6.134 9.078-12.433zm-11.59 15.853l38.731 1.8-.843 12.934-46.373-3.3q4.211-5.632 8.485-11.434zm-11 14.8l48.655 3.459-.657 10.073-7.666 5.057-46.09-10.963q2.867-3.774 5.761-7.629zm-19.02 24.81q5.4-6.879 10.924-14.111l15.551 3.7-23.58 41.351q-3.283 2.177-6.346 4.219-5.391 3.594-10.433 7.748z"/></svg>