<svg xmlns="http://www.w3.org/2000/svg" viewBox="0 0 600 600"><defs><style>.a{fill:#ff1d25}.b{fill:none}.c{fill:#fff}</style></defs><title>pxg-web-site07</title><path class="a" d="M742-217.41v945H-812v-945H742m6-6H-818v957H748v-957z"/><path class="b" d="M300 0H0v600h600V0H300z"/><path class="c" d="M0 540.976L33.253 600h4.049L0 533.787v7.189zM371.223 600h4.1a175.31 175.31 0 0 1 5.064-7.315L412.252 600h15.759l-45.3-10.4q3.322-4.328 6.943-8.5l89.881 18.9h17.141l-104.329-21.939q5.41-5.966 11.455-11.622L524.624 600H537.8l-130.937-36.372q5.053-4.546 10.539-8.9l132.249 35.435 4.235 9.837h3.841l-42.3-98.257q4.339-1.7 8.74-3.365L570.982 600h3.886l-47.393-102.865q4.018-1.5 8.08-2.974L590.361 600h3.972L538.9 492.959c.763-.276 1.522-.551 2.289-.824l16.75 5.486L600 572.979v-7.234l-37.113-66.5 16.68 5.463L600 540.976v-7.186l-15.468-27.458L600 511.4v-3.712l-53.348-17.476q9.616-3.364 19.438-6.639L600 494.911v-3.723l-28.327-9.47q13.869-4.586 28.059-9.11l.268.111v-3.9C505.534 499.089 416.123 529.671 371.223 600zm140.915-96.964l7.433 17.264-27.2-9.012q9.695-4.26 19.767-8.252zm-24.562 10.379l33.861 11.216 3.484 8.093-45.28-15.638q3.935-1.861 7.935-3.671zm-12.459 5.842l51.692 17.849 4.148 9.634-65.577-22.591q4.804-2.495 9.736-4.892zm-14.017 7.15l71.743 24.717 2.035 4.727-88.016-21.367q6.959-4.168 14.238-8.077zm-16.813 9.633l-.333 1.37 92.668 22.5 4.081 9.478-103.762-28.699q3.627-2.368 7.347-4.65zm-18.3 12.174a267.943 267.943 0 0 1 7.075-4.939l109.431 30.265 5.38 12.5-126.988-34.032q2.504-1.914 5.098-3.795zM581.09 276.877a1.288 1.288 0 0 0-.573.468q-11.319 5.334-22.976 10.236l-.048-.108a1.278 1.278 0 0 0-.54.356c-19.808 8.34-40.244 15.86-60.947 22.966-19.99 6.861-40.224 13.328-60.375 19.772-47.814 15.289-94.713 30.285-135.631 50.054-77.614 37.494-133.708 92.158-133.708 198.554q0 10.658-.424 20.828h40.379c11.7-15.338 26.2-29.209 43.629-41.849A329.439 329.439 0 0 1 300 528.711c40.473-19.578 87.021-34.464 135.428-49.942 56.081-17.932 113.488-36.3 164.572-63.216v-3.722q-5.614 2.964-11.335 5.8L600 388.647v-9.688l-16.017 40.962q-6.624 3.2-13.374 6.241L600 351.773v-9.6l-34 86.045q-5.312 2.344-10.689 4.6L600 315.313v-9.927l-2.057 5.409-47.114 123.895q-4.863 2.005-9.774 3.949L587.247 310.8 600 275.5v-7.833q-9.277 4.862-18.833 9.376zm-26.253 15.544a2370.48 2370.48 0 0 0-5.767 14.34l-16.816-5.337q11.387-4.347 22.584-9.003zm-27.328 10.807l-.114.355 20.365 6.463-.3.75-1.705 4.284-1.747 4.4-26.17-8.682-5.766-1.913q7.753-2.777 15.437-5.657zm-20.851 7.572l36.048 11.961q-1.751 4.415-3.721 9.388l-46.173-16.557q6.937-2.358 13.846-4.792zm-19.22 6.614l50.249 18.017q-1.924 4.856-4.031 10.2L474.15 321.84q6.65-2.189 13.288-4.425zm-18.513 6.135l63.434 25.36q-2.806 7.105-5.916 14.993l-69.153-36.577q5.816-1.874 11.634-3.775zm-32.218 10.377q7.931-2.534 15.892-5.09l72.487 38.34.254-.482-2.639 6.691q-1.058 2.691-2.119 5.383L434.1 334.762c.87-.277 1.736-.557 2.606-.835zm-7.381 2.363l89.957 45.775c-1.882 4.779-3.752 9.525-5.581 14.177l-94.41-56.733q4.999-1.608 10.034-3.218zm-14.492 4.658l97.556 58.625-3.16 8.028-114.43-60.1q9.932-3.3 20.033-6.552zm-24.674 8.094L507.932 410.9l-5.083 12.926-122.213-71.563q4.739-1.619 9.523-3.221zm-13.921 4.735l125.306 73.376a9353.734 9353.734 0 0 0-3.217 8.186l-141.3-74.723q9.486-3.482 19.21-6.838zM300 384.5q5.164-2.519 10.458-4.939l-4.015 12.012-6.443-3.527-3.423-1.871c1.133-.566 2.279-1.119 3.423-1.675zm-7.235 3.613l7.235 3.954 5.308 2.9-1.92 5.744-3.388-1.867-13.516-7.45q3.116-1.665 6.281-3.282zm-9.955 5.287l17.19 9.474 2.252 1.24-2.009 6.011-.243-.091-28.058-10.4q5.337-3.199 10.868-6.234zm-14.7 8.582l31.017 11.492-1.483 4.438-39.682-9.351q4.97-3.382 10.145-6.583zm-16.953 11.334c.956-.693 1.928-1.37 2.9-2.054l42.468 10.01-2.022 6.05-49.008-9.77q2.772-2.146 5.659-4.24zm-9.321 7.1l51.536 10.272-2.215 6.628-56.787-10.66q3.63-3.167 7.463-6.24zm-10.785 9.205l58.978 11.071-2.814 8.414-61.9-14.059q2.785-2.747 5.733-5.425zM222.373 438l63.715 14.472-2.542 7.6-70.679-11.587q4.508-5.365 9.506-10.485zm-12.092 13.64l72.132 11.826-3.063 9.167-75.713-12.168q3.17-4.494 6.645-8.825zm-8.862 12.04l76.8 12.343-1.738 5.2-83.438-3.723q3.857-7.1 8.376-13.819zm-10.207 17.262l84.1 3.759-3.943 11.8-85.937-3.158q2.662-6.343 5.78-12.4zm-7.2 15.875l86.19 3.169-1.891 5.656-89.639 6.733q2.358-7.975 5.344-15.557zm-6.368 19.174l89.455-6.72-5.177 15.489h-86.461q1.005-4.442 2.188-8.768zm26.619 80.932h-34.746c.074-2.172.139-4.349.184-6.546l41.3-1.684q-3.48 4.017-6.734 8.231zm9.989-11.893l-44.5 1.814q.041-3.059.053-6.149l57.178-8.414q-6.659 6.119-12.727 12.751zm17.526-17.021l-61.951 9.117q.058-8.7.615-17.012l73.69-2.062q-6.376 4.807-12.35 9.959zm21.131-16.284q-1.906 1.319-3.779 2.661l-78.43 2.194q.413-5.115 1.017-10.09l84.347-4.2zm-80.729-8.791q1.03-7.483 2.514-14.647h86.049L257.27 538.7zm85.532 5.553l2.134-6.388.1-.006-.011-.244L300 421.979l14.839-44.4q5.214-2.323 10.54-4.567l6.242 3.617L300 456.247l-34.713 87.41q-3.84 2.37-7.57 4.831zm12.565-7.852L300 465.806l34.706-87.388 9.536 5.527L300 489.443l-18.892 45.048q-5.508 2.998-10.827 6.145zM300 521.862l-1.517 3.712q-6.32 3.061-12.442 6.273L300 498.562l47.32-112.837 6.7 3.881L300 521.86zm3.214 1.459L357.1 391.395l10.988 6.367-54.283 120.733q-5.356 2.367-10.591 4.826zm15.4-6.923l52.537-116.859 6.636 3.847-47.2 107.437.676.3q-6.393 2.577-12.647 5.277zm16.343-6.759l45.9-104.472 11.489 6.659-47.046 93.792q-5.214 1.982-10.341 4.02zm15.2-5.856l45.245-90.188 9.869 5.719-26.613 74.307q-14.458 4.947-28.495 10.162zm32.769-11.615l25.447-71.055 13.761 7.977-29.277 59.751q-4.981 1.654-9.925 3.327zm14.618-4.877l27.656-56.429 11.959 6.932-21.942 43.749q-8.874 2.862-17.666 5.747zm36.13-11.668q-6.9 2.2-13.759 4.408l20.3-40.465 11.138 6.455zm5.084-1.623l15.651-26.21 7.822 4.531-13.6 18.515q-4.936 1.588-9.873 3.164zm15.6-5.009L465.3 454.1l12.5 7.243q-11.694 3.879-23.437 7.649zm35.316-11.633q-3.7 1.257-7.414 2.5l-152.788-88.55q4.616-1.9 9.313-3.754l153.005 84.424a7610.216 7610.216 0 0 0-2.112 5.381zm-146.62-91.477q4.729-1.836 9.532-3.624l144.443 76.385c-1.5 3.825-2.83 7.2-3.938 10.024zm151 89.987c16.791-42.783 43.612-110.96 57.205-145.073 4.36-10.944 7.356-18.372 8.223-20.336q9.474-4.035 18.764-8.337c-1.613 3.85-4.3 10.663-9.025 22.834q-1.078 2.778-2.26 5.839c-5.276 13.66-12.092 31.476-20.311 53.092-14.95 39.32-29.9 79.03-32.06 84.76q-10.212 3.692-20.538 7.221zm103.157-183.035L583.495 310.8l-46.812 129.558q-8.8 3.433-17.724 6.7c12.508-33.225 36.872-97.67 51.784-136.259 6.47-16.74 11.161-28.614 12.333-30.958q7.135-3.411 14.135-7.008zm-14.573 7.211a.314.314 0 0 1-.04.024.142.142 0 0 1 .04-.024z"/><path class="c" d="M300 547.685a321.656 321.656 0 0 0-38.75 23.335l-.116-.121-.858.821A223.336 223.336 0 0 0 227.655 600h4.8a211.891 211.891 0 0 1 17.074-15.635l14.328 14.535-26.837 1.1h32.871l-17.6-17.865q4.133-3.295 8.511-6.484L284.1 600h4.884L263.7 573.583q6.949-4.916 14.311-9.473L300 589.808 308.72 600h4.641L300 584.384l-18.945-22.142q3.919-2.369 7.948-4.644l11 10.684L332.658 600h5.063L300 563.359l-7.783-7.564q3.847-2.124 7.783-4.184 2.3-1.2 4.627-2.373l40.749 48.11c-.56.876-1.108 1.764-1.653 2.651h4.023c12.936-20.467 30.326-38.469 52.424-54.494 49.469-35.873 115.57-57.01 185.552-79.384q7.127-2.277 14.278-4.575v-3.769l-.046.083q-3.55 1.141-7.1 2.277L600 444.413v-9.582c-48.057 23.809-101.495 40.9-154.35 57.8-51.768 16.55-102.458 32.759-145.65 55.054zm47.389 46.583l-39.517-46.655q5.217-2.58 10.57-5.057L349.83 590.7q-1.243 1.766-2.441 3.567zm4.651-6.639l-30.354-46.559q4.586-2.078 9.267-4.1l29.7 39.812q-4.499 5.255-8.613 10.846zm10.993-13.559l-28.745-38.525q5.858-2.482 11.846-4.873l21.172 38.755q-2.174 2.286-4.272 4.642zm6.841-7.3l-20.433-37.406q5.166-2.034 10.418-4.014l20.241 31.736.016-.012q-5.296 4.692-10.242 9.697zm12.926-12.022l-19.563-30.664 2.635-.975 18.387 5.831-.583.266 8.249 18.118q-4.678 3.612-9.125 7.424zm12-9.618l-6.836-15.015 19.4 6.152q-6.454 4.281-12.564 8.863zm16.387-11.352l-39.9-12.65q6.959-2.519 14.049-4.97l38.336 10.019q-6.372 3.685-12.484 7.6zm16.883-10.1l-36.706-9.594q8.767-2.993 17.687-5.925l30 9.63q-5.575 2.873-10.98 5.889zm15.445-8.16l-28.756-9.233q5.622-1.836 11.3-3.666l29.556 7.072q-6.137 2.845-12.099 5.827zm17.305-8.208l-28.3-6.773q5.689-1.827 11.418-3.657l21.675 8.3q-2.407 1.056-4.792 2.131zm69.43-26.778l7.485-6.13 3.98 2.271q-5.758 1.913-11.463 3.859zm68.2-41.226l-1.965 4.32h-7.04q4.529-2.126 9.003-4.319zm-16.678 7.846h13.11l-3.655 8.035-21.847-2.614q6.232-2.652 12.39-5.421zm-18.981 8.186l26.9 3.218-1.378 3.033-3.668 1.171-8.743 2.8-21.695-6.73q4.308-1.722 8.582-3.491zm-13.816 5.562l21.077 6.538q-5.151 1.656-10.278 3.315l.088-.2-16.712-7.4q2.917-1.114 5.825-2.253zm-10.516 4.041l16.6 7.345q-4.429 1.441-8.837 2.9l-13.93-7.945q3.087-1.141 6.166-2.303zm-10.5 3.889l6.5 3.7-13.828 11.326q-6.081 2.125-12.081 4.3l10.047-15.972q4.688-1.659 9.359-3.357zm-14.718 5.245l-9.606 15.269.618.388q-6.289 2.315-12.474 4.7l13.048-17.454q4.209-1.441 8.411-2.906zm-14.32 4.916l-13.371 17.885q-3.951 1.565-7.852 3.175l8.716-16.889q6.258-2.067 12.505-4.174zm-17.285 5.744l-2.781 5.388-9.847-1.279q6.311-2.044 12.625-4.112zm-20.5 6.646l16 2.077-4.492 8.7q-1.2.51-2.394 1.021l-20.929-8.017q5.895-1.887 11.81-3.784zM33.54 450.775l.114-.223c64.469-21.594 127.829-46.778 178.523-87.829a278.2 278.2 0 0 0 49.894-51.923 265.193 265.193 0 0 0 27.229-46.532q5.965-13.035 10.7-26.888c10.106-29.51 16.087-61.949 18.082-98.062l.208-.2-.185-.193q.729-13.436.73-27.558c0-43.879 9.363-80.436 28.911-111.365h-4.024q-1.12 1.827-2.206 3.688L337.721 0h-5.061l7.061 6.858q-4.051 7.324-7.485 15.2L313.362 0h-4.642l21.98 25.692q-2.574 6.292-4.744 12.951L300 11.518 288.98 0h-4.88L300 16.618l24.75 25.867q-1.53 5.052-2.826 10.313L300 30.551 269.893 0h-32.886l-4.743.193.191-.193h-4.8a180.337 180.337 0 0 0-43.914 79.457l-.341.043.1.9c-4.682 18.188-7.191 38.354-7.191 60.833q0 14.365-.757 27.869l-.227.229.2.2c-3.255 57.583-16.546 103.687-37.179 141.263C106.452 368.88 57.012 406.583 0 434.831v9.586l3.453-7.6q5.775-2.91 11.45-5.956L0 457.778v3.769q16.65-5.348 33.319-10.886zm17.884-10l16.828-29.9 5.3 11.416-10.913 14.519q-5.591 2.005-11.215 3.966zM68.7 434.61l6.532-8.693 2.48 5.344q-4.489 1.695-9.012 3.349zm61-25.146l-10.59-30.849 10.447 7.56 7.254 19.872q-3.541 1.731-7.111 3.417zm10.294-4.991l-5.333-14.6 14.039 10.154q-4.327 2.261-8.709 4.445zM258.163 310.8q-2.22 2.982-4.512 5.88l-7.75-5.88-.4-.3 25.965-19.42q-6.272 10.295-13.303 19.72zm17.608-27.054l-.138-.185-33.052 24.72-8.413-6.38 52.853-40.463q-5.206 11.639-11.25 22.303zM300 226.418a292.581 292.581 0 0 1-10.142 28.469l-.03-.039-58.573 44.842-9.075-6.89L300 225.283l.446-.387c-.146.504-.294 1.018-.446 1.522zm2.2-7.721l-2.2 1.914-80.694 70.01-6.442-4.887L300 204.111l7.274-6.816q-2.242 11.039-5.074 21.405zm6.221-27.315L300 199.276l-89.986 84.3-6.675-5.063L300 182.1l11.712-11.681q-1.386 10.781-3.287 20.964zm3.971-26.627L300 177.12l-99.5 99.238-13.56-10.285L300 156.794l14.323-13.844q-.711 11.192-1.923 21.806zm2.228-27L300 151.885 184.1 263.914l-9.274-7.033L300 133.384l15.258-15.054q-.133 9.921-.633 19.423zM228.775 3.866L267.2 2.293l8.585 8.712-55.488 2.7q4.031-5.022 8.478-9.839zM217.423 17.38l61.033-2.974-.036-.728 10.85 11.01-79.644 3.8q3.665-5.683 7.797-11.108zm-9.145 13.232l.07 1.469 84.245-4.021L300 35.579l1.358 1.375-1.358.187-102.775 14.172a172.481 172.481 0 0 1 11.053-20.701zM195.581 55.1L300 40.7l4.447-.612 6.561 6.659L300 48.35 192.091 64.035q1.634-4.535 3.49-8.935zm-4.793 12.689L300 51.913l14.081-2.047 6.895 7q-1.028 4.581-1.876 9.327l-.2-1.761-18.9 2.1-112.605 12.52q1.538-5.736 3.393-11.263zm-4.331 14.916L300 70.078l18.787-2.088q-1.422 8.376-2.276 17.272L300 86.51l-116.243 8.779q1.172-6.412 2.7-12.584zm-3.325 16.17L300 90.05l16.2-1.224q-.491 6.061-.709 12.371L300 101.73l-117.9 4.054q.466-3.484 1.031-6.909zm-1.481 10.453l16.235-.557-17.953 25.087q.308-12.676 1.717-24.53zm-1.812 31.905c0-.4.006-.795.007-1.194l22.47-31.4-.032-.021 16.386-.562-38.968 45.1q.132-5.897.136-11.922zm-.292 17.506l43.929-50.847 13.381-.46-57.58 57.928q.154-3.291.269-6.621zM179 170.646l63.009-63.39 21.3-.733-85.794 82.877q.929-9.208 1.485-18.754zm-2.076 24.232l91.652-88.536 14.075-.482-106.975 98.821q.678-4.854 1.246-9.804zm-2.067 15.365l113.191-104.571L300 105.26l.617-.022-.617.587L171.793 227.35q1.715-8.405 3.062-17.107zm-4.36 23.194L300 110.688l5.938-5.627 9.448-.326c-.048 2.192-.078 4.4-.078 6.631 0 .661-.008 1.316-.01 1.973L300 128.429l-128.017 126.3-5.534-4.2-.39.515q2.435-8.638 4.441-17.607zm-5.297 20.572l74.863 56.791 11.38 8.632q-3.212 3.952-6.558 7.751L218.75 310.8l-59.872-37.529q3.454-9.426 6.322-19.262zm-7.587 22.628l54.494 34.163 30.4 19.056q-5.914 6.546-12.2 12.651L188.131 310.8l-33.958-25.529q1.784-4.277 3.44-8.634zm-7.315 17.5a291.38 291.38 0 0 0 2.45-5.528L182.26 310.8l45.469 34.181q-2.512 2.381-5.081 4.7L162.177 310.8l-15.161-9.747q1.684-3.43 3.284-6.916zm-8.32 16.663q1.767-3.258 3.454-6.576l10.227 6.576 64.259 41.317q-5.591 4.92-11.424 9.553l-71.073-42.8q2.342-3.988 4.557-8.07zm-6.37 11.1l69.915 42.1q-4.277 3.32-8.669 6.5l-65.534-41.779q2.193-3.378 4.288-6.821zm-6.23 9.771l64.384 41.037q-3.32 2.345-6.7 4.616L123.2 340.49q3.18-4.35 6.178-8.822zm-8.3 11.675l62.7 36.159q-4.674 3.068-9.452 6l.521-.913-59.447-33.957q2.911-3.601 5.682-7.292zm-7.949 10.054l58.786 33.575q-4.213 2.544-8.5 5l-53.188-35.149q1.468-1.7 2.902-3.426zm-5.238 6.108l52.08 34.415q-3.87 2.166-7.8 4.265l-47.909-34.67q1.838-1.991 3.629-4.009zm-6.05 6.609l12.3 8.9 12.339 35.942q-3.1 1.439-6.225 2.842l-20.144-45.87a128.88 128.88 0 0 0 1.73-1.813zm-4.385 4.542l19.581 44.583q-5.707 2.529-11.489 4.958L93.6 374.484q1.949-1.899 3.856-3.824zm-6.774 6.621l11.578 44.29q-3.08 1.277-6.179 2.53l-11.007-41.652q2.851-2.559 5.608-5.167zm-8.563 7.787l10.663 40.356q-2.152.856-4.313 1.7l-13.614-35.908q3.702-3.038 7.263-6.147zm-10.153 8.483l13.215 34.859q-2.075.8-4.156 1.6L66.2 398.07q2.91-2.229 5.766-4.52zm-8.649 6.689l3.106 6.691L46.4 442.516q-5.223 1.8-10.466 3.562l20.911-41.118q3.267-2.323 6.471-4.721zM4.862 456.281l15.836-28.6q6.637-3.7 13.109-7.613l-22.23 34.042q-3.357 1.09-6.715 2.171zm12.064-3.911l23.931-36.643-.017-.01q5-3.171 9.879-6.5l-19.561 38.46q-7.105 2.367-14.232 4.693zM114.467 129.365C131.665 91.8 141.21 49.293 143.473 0h-3.543c-.061 1.315-.115 2.636-.187 3.935L136.418 0H131.8l7.631 9.04q-.96 14.556-2.773 28.137L112.342 0h-4.214l27.792 42.485q-1.224 8.322-2.753 16.283L95.776 0H91.6l40.572 63.77q-2.022 9.75-4.5 18.968L76.77 0h-4.141l53.752 87.376q-2.389 8.394-5.157 16.35L60.185 0h-4.094l63.591 108.06q-4.173 11.445-9.1 22.011L37.3 0h-4.047l75.477 133.974q-3.421 7.065-7.164 13.753L19.12 0h-4.04l84.446 151.309a256.553 256.553 0 0 1-14.974 22.923L0 10.944v7.673l82.209 158.765q-7.838 10.369-16.523 19.748L0 54.551v8.431l63.084 136.925q-1.78 1.873-3.593 3.707l-.019-.119-13.185 2.195L0 98.183v10.787l.885.185 11.227 26.079L0 132.083v3.645l13.878 3.608 6.945 16.132L0 150.171v3.638l22.585 5.746 7.447 17.3L0 169.78v3.625l31.768 7.479 7.1 16.5L0 188.731v3.616l13.14 2.924L0 197.584v3.583l22.122-3.894 18.471 4.112 2.111 4.9L0 213.387v3.575l55.309-9.2q-7.27 7.053-15.006 13.556l-.026-.17L0 227.388v3.569l35.232-5.457q-4.9 3.948-9.952 7.7l-.033-.2L0 237.048v3.576l19.32-3.1Q9.9 244.2 0 250.286v3.8a349.314 349.314 0 0 0 37.349-26.263c34.266-27.75 59.491-59.955 77.118-98.458z"/><path class="c" d="M109.682 326.261h.15v-.2q5.6-7.444 10.645-15.263A268.47 268.47 0 0 0 139 276.915c19.879-43.417 29.541-93.435 29.541-152.906C168.542 74 180.7 33.495 206.245 0h-40.377c-2.149 52.616-12.488 95.871-29.068 131.893l-.14.1.058.073a259.006 259.006 0 0 1-31.375 51.5l-.079.019.015.063C77.006 219.732 40.646 246.349 0 267.662v7.838l1.837-5.083q7.346-3.885 14.509-8.014L0 305.388v9.926l1.718-4.514L21.2 259.557q4.037-2.4 8.008-4.895l2.284 7.8L12.4 310.8 0 342.176v9.6L16.193 310.8l16.917-42.823 4.407 15.045-10.86 27.778L0 378.962v9.685L30.445 310.8l8.7-22.236 3.886 13.265-3.473 8.971L.621 411.5c-.207.111-.414.216-.621.326v3.722a377.384 377.384 0 0 0 61.884-40.185 279.362 279.362 0 0 0 47.798-49.102zm-17.868 16.674L89.5 326.261h16.24q-6.659 8.692-13.926 16.674zm16.576-20.2H89.014L87.361 310.8l-.389-2.8 8.388 2.8 17.421 5.819q-2.159 3.096-4.39 6.114zm8.31-11.935q-.92 1.4-1.853 2.79l-8.347-2.79-20.066-6.7-.8-5.765 36.425 3.921q-2.611 4.344-5.359 8.544zm7.322-11.879l-38.895-4.188-1.636-11.8 45.218 7.565q-2.275 4.277-4.682 8.418zm6.406-11.715l-47.443-7.938-1.521-10.969 54.549 7.373q-2.676 5.89-5.58 11.528zm7.083-14.891l-56.55-7.646-1.479-10.676 62.2 8.273q-2.001 5.11-4.166 10.044zm4.67-11.319l.291-2.186-63.495-8.441-.667-4.812 68.4 2.924q-2.148 6.386-4.524 12.51zm5.668-16L77.823 242l-1.45-10.461 74.363 4.007q-1.38 4.793-2.882 9.445zM201.615.449q-2.063 2.815-4.023 5.719L194.5.449h7.115zm-11.123 0l4.9 9.065q-1.853 2.882-3.6 5.848L182.95.449h7.542zm-21.105 0h9.463l10.924 18.433q-2.282 4.085-4.371 8.34L169.032 7.7q.202-3.6.355-7.251zm-.673 12.361l15.015 17.905q-1.949 4.2-3.707 8.572L167.9 23.08q.464-5.085.814-10.27zm-1.32 15.481l11.047 14.773.153-.113q-1.493 3.943-2.833 8.031l-9.937-9.582q.883-6.469 1.571-13.109zm-2.186 17.418l9.368 9.03q-.856 2.806-1.64 5.678l-9.069-6.309q.714-4.165 1.342-8.399zm-2.014 12.227l8.789 6.116q-1.123 4.436-2.07 9.034l-8.2-7.488q.778-3.798 1.481-7.662zM160.862 69.6l8.255 7.539q-.637 3.422-1.179 6.937l-9.555-3.864q1.317-5.243 2.479-10.612zm-3.373 14.057l9.922 4.009q-.469 3.391-.847 6.863l-10.629-5.161q.801-2.839 1.554-5.712zm-2.556 9.143l11.25 5.463q-.527 5.6-.814 11.427L153.718 96.8q.62-1.987 1.215-4zm-2.451 7.893l12.684 14.033q-.129 4.105-.145 8.319l-16-12.288q1.81-4.968 3.46-10.057zm-4.754 13.524l6.325 4.855-11.917 8.853q2.964-6.739 5.591-13.704zm-8.613 20.348l17.848-13.261 8.02 6.161.014-.017q-.017 2.336-.051 4.645l-29.588 10.167q1.93-3.8 3.756-7.691zm-6.121 12.236l31.886-10.955q-.091 3.991-.246 7.905l-36.2 11.258q2.348-4.051 4.559-8.204zm-7.226 12.731l38.71-12.039q-.214 4.629-.513 9.163L120.6 167.719q2.656-4.039 5.167-8.182zm-8.113 12.576l46.045-11.736q-.322 4.352-.722 8.62l-52.695 13.328q3.817-5.02 7.371-10.207zm-10.9 14.741l55.864-14.13q-.919 8.92-2.181 17.445l-57.076.868q1.717-2.069 3.388-4.178zm-6.411 7.758l59.562-.906q-.889 5.675-1.93 11.175l-65.644-1.359q4.117-4.381 8.007-8.904zm-10.561 11.587l-.017.8 67.528 1.4q-1.267 6.379-2.727 12.536L85.51 210.518q2.164-2.145 4.273-4.324zm-7.437 7.416l71.381 10.763q-.97 3.89-2.015 7.69l-75.832-4.085-1.028-7.415q3.83-3.43 7.494-6.953zm-10.667 9.758L83.8 310.8l4.92 35.5q-2.764 2.945-5.6 5.8l-5.836-41.3-11.628-82.323q3.062-2.53 6.023-5.11zm-9.217 7.712l11.26 79.72 6.269 44.376q-2.915 2.832-5.906 5.574l-9.814-49.95-13.846-70.486q6.127-4.481 12.037-9.235zm-30.145 21.631q7.621-4.884 14.957-10.137l13.4 68.221 10.355 52.711q-2.468 2.2-4.985 4.345L49.331 310.8zM5.4 408.934L43.341 310.8l1.316-3.406 1 3.406 3.97 13.553L10.874 405.9q-2.724 1.538-5.474 3.034zm10.844-6.116l34.871-73.387 1.437 4.9L31.715 393.3q-7.598 4.925-15.472 9.519zm20.351-12.73l17.653-49.963 4.944 16.881-12.3 25.7.16.077q-5.152 3.743-10.458 7.305zm24.082-28.016l2.42 8.26q-5.053 4.192-10.283 8.164zM0 572.979L15.08 600h4.04L0 565.742v7.237zM590.361 0L600 18.616v-7.672L594.333 0h-3.972zM570.982 0L600 62.985v-8.434L574.865 0h-3.883zM553.886 0l2.184 5.071L537.808 0h-13.18l33.232 9.23 1.722 4L496.676 0h-17.143l81.755 17.19 6.407 14.879L428.014 0h-15.762l157.172 36.086 4.147 9.632L368.466 11.3A171.387 171.387 0 0 1 375.328 0h-4.106c-19.06 29.854-30.1 66.871-30.1 114.069 0 74.1-15.3 130.74-41.121 175.138a256.9 256.9 0 0 1-14.042 21.593 261.059 261.059 0 0 1-20.709 25.1l-.232-.061-.108.425q-8.993 9.586-18.8 18.217l-.183-.058-.1.307q-7.191 6.334-14.777 12.2l-.182-.081-.141.331c-61.592 47.559-141.58 73.133-220.273 98.294Q5.221 467.142 0 468.815v3.9l144.162 59.206q-.614 3.5-1.126 7.087L0 491.187v3.72l142.553 47.661q-.714 5.6-1.189 11.424L0 507.685v3.715l4.9 1.6 51.193 87h4.093L9.967 514.664l12.73 4.169L72.629 600h4.141l-48.886-79.467 16.616 5.442L91.6 600h4.181l-45.999-72.294 14.069 4.607L108.128 600h4.214l-43.125-65.929 9.6 3.143L131.8 600h4.616l-51.223-60.695 7.978 2.614 47.305 35.424q-.021 11.62-.546 22.657h3.543q.53-11.518.535-23.534c0-72.917 25.846-125.618 81.334-165.861 21.976-15.935 47.238-28.958 74.659-40.479 34.308-14.412 72-26.47 110.894-38.905 20.684-6.611 41.549-13.287 62.212-20.425 44.526-15.382 88.106-32.923 126.9-56.714v-3.8q-7.25 4.473-14.724 8.662l-.018-.144-284.515 35.381q1.858-3.079 3.638-6.212L600 240.623v-3.576l-293.436 47q2.242-4.113 4.349-8.329L600 230.957v-3.569l-287.19 44.467q1.166-2.427 2.3-4.878c.432-.945.852-1.9 1.274-2.844L600 216.962v-3.575l-281.937 46.89q2.155-5.048 4.14-10.211l277.8-48.9v-3.583l-276.361 48.646q1.959-5.339 3.726-10.81L576.446 187.1 600 192.347v-3.616l-255.419-56.875-.282 1.274q.343-9.369.35-19.059v-.788L600 173.406v-3.626l-255.317-60.116q.154-10.554 1.054-20.544L600 153.809v-3.641l-253.918-64.6q.817-7.83 2.111-15.324L600 135.729v-3.645l-251.179-65.32q.941-4.986 2.1-9.826L600 108.97V98.181L557.727 0h-3.841zM140.5 572.954l-36.87-27.61 37.47 12.273q-.5 7.483-.6 15.337zm33.664-166.316l-1.573 11.262-9.751-5.55q5.708-2.795 11.326-5.712zM159 414.22l13.067 7.442-1.242 8.875-24.209-10.561q6.236-2.812 12.384-5.756zm-14.186 114.158L4.949 470.936l6.587-2.106 12.205-3.909 122.41 57.033q-.714 3.169-1.337 6.424zm2.152-9.936L28.685 463.334q8.33-2.683 16.669-5.407l104.34 50.4q-1.477 4.956-2.728 10.115zm3.781-13.519L50.184 456.342q4.935-1.625 9.866-3.28l95.483 38.562q-2.606 6.455-4.785 13.3zm6.137-16.559l-91.7-37.034q7.317-2.476 14.6-5.03l80.9 33.742q-1.984 4.083-3.799 8.323zm8.186-16.728q-1.438 2.589-2.8 5.246l-77.524-32.333q4.659-1.658 9.3-3.35l72.054 23.058zm1.53-10.924l-67.185-21.5q4.01-1.492 8-3.015l59.833 19.885zm1.144-8.177L112.587 434.2q7.386-2.877 14.687-5.892l41.319 18.157zm-35.962-26.1q5.261-2.214 10.464-4.52l28.071 12.245-1.215 8.673zm37.958 37.289l8.274-59.126q6.271-3.34 12.406-6.863L176.432 453.8q-3.498 4.828-6.692 9.927zm25.281-31.824a191.847 191.847 0 0 0-13.181 14.795l12.828-51.412q7.987-4.712 15.7-9.779zm5.485-5.35l14.632-44.215q6.661-4.519 13.088-9.328l-20.1 46.708q-3.902 3.336-7.62 6.831zm13.585-11.769l19.862-46.159c1.35-1.058 2.705-2.111 4.039-3.189q3.092-2.505 6.083-5.057l-13.095 42.036q-8.771 5.904-16.89 12.365zm21.54-15.437l13.52-43.4q7.425-6.624 14.227-13.579l-11.927 47.427q-8.124 4.592-15.821 9.548zm20.052-11.914l12.638-50.252q3.847-4.142 7.487-8.41l4.6.375L266.4 381.77q-5.439 2.766-10.717 5.657zm14.928-7.765l13.368-50.23L300 330.738l.881.073-.881 2.694-12.488 38.225q-8.612 3.842-16.901 7.932zM300 366.339q-4.105 1.717-8.152 3.478L300 344.864l4.5-13.758 10.683.871-6.962 31q-4.139 1.661-8.221 3.362zm12.187-4.947l6.541-29.124 11.254.918-5.944 23.645q-5.973 2.248-11.851 4.561zm15.865-6.058l5.495-21.856 13.738 1.122-5.773 15.864q-6.783 2.402-13.46 4.87zm17.765-6.385l5.115-14.051 12.405 1.011-5.661 8.957q-5.962 2.022-11.859 4.083zm17.162-5.871l4.326-6.846 13.155 1.076q-8.79 2.863-17.481 5.769zm46.842-15.216q-10.355 3.313-20.636 6.617l-39.978-3.262-.607-.217-.061.164L300 327.2l-21.415-1.748q2.613-3.167 5.118-6.4l16.3.474 124.558 3.621q-7.373 2.36-14.74 4.714zm52.416-17.062q-13.769 4.644-27.635 9.11L300 315.994l-13.67-.4q1.782-2.38 3.513-4.8l.123-.174 10.034-.839L514.724 291.8c-17.185 6.767-34.756 13.014-52.487 19zm114.97-47.434c-16.5 8.8-33.735 16.713-51.441 24v-.022L300 306.243l-7.414.62q2.985-4.359 5.8-8.834l1.613-.2zm-9.386-78.179l-239.237 46.41q1.871-6.036 3.525-12.232l201.053-41.9zM524.8 175.6l-191.7 39.95q2.3-9.094 4.142-18.546l163.016-26.869zm-33.774-7.521l-153.093 25.236q1.326-7.206 2.385-14.623l118.74-17.731zm-41.561-9.253l-108.648 16.22q1.007-7.565 1.749-15.36l79.576-6.945zm-38.747-8.626l-67.818 5.916q.881-10.16 1.316-20.726zm188.46-45l-247.4-51.683q2.25-8.7 5.228-16.93L590.6 85.27zM588.9 81.313L358.256 33.239q2.519-6.561 5.518-12.827L583.852 69.6zM582.131 65.6L365.374 17.153q.653-1.293 1.327-2.576l208.529 35z"/></svg>